<svg xmlns="http://www.w3.org/2000/svg" viewBox="0 0 26 26" width="32" height="32"><path fill="#fff" d="M25.09 15.715c.187-.832.281-1.695.281-2.582 0-6.633-5.476-12.012-12.234-12.012-.711 0-1.41.063-2.094.176A7.156 7.156 0 0 0 7.27.23C3.352.23.176 3.348.176 7.195c0 1.285.351 2.489.976 3.524-.164.781-.25 1.59-.25 2.414 0 6.637 5.477 12.015 12.235 12.015.765 0 1.515-.07 2.242-.203.996.528 2.14.828 3.355.828 3.918 0 7.094-3.117 7.094-6.964a6.855 6.855 0 0 0-.738-3.094zm-5.68 3.16c-.562.785-1.398 1.41-2.484 1.852-1.07.437-2.36.66-3.82.66-1.758 0-3.235-.301-4.383-.903A5.684 5.684 0 0 1 6.71 18.73c-.524-.734-.785-1.464-.785-2.171 0-.438.172-.82.508-1.133.336-.313.765-.465 1.277-.465.422 0 .781.121 1.078.363.281.235.524.582.719 1.031.215.489.453.899.703 1.223.238.313.586.574 1.023.777.446.207 1.043.313 1.778.313 1.011 0 1.84-.211 2.465-.629.609-.406.906-.898.906-1.5 0-.477-.156-.848-.473-1.14-.332-.305-.773-.544-1.305-.708a28.697 28.697 0 0 0-2.246-.546c-1.27-.266-2.347-.582-3.207-.942-.879-.363-1.586-.875-2.101-1.508-.528-.644-.79-1.457-.79-2.41 0-.906.278-1.726.833-2.43.543-.699 1.343-1.246 2.375-1.62 1.011-.368 2.222-.555 3.586-.555 1.093 0 2.054.125 2.855.37.809.247 1.488.579 2.024.99.539.413.937.855 1.187 1.312.254.464.383.925.383 1.37 0 .43-.168.817-.5 1.16-.336.34-.762.513-1.258.513-.453 0-.808-.106-1.055-.32-.23-.2-.468-.509-.73-.954-.305-.57-.676-1.02-1.098-1.336-.41-.305-1.101-.46-2.043-.46-.879 0-1.59.171-2.12.51-.512.33-.759.708-.759 1.153 0 .274.079.504.243.7.175.207.421.39.73.542.324.16.652.286.984.375.34.094.91.23 1.696.41.988.208 1.898.438 2.703.692.812.258 1.52.57 2.094.938a4.12 4.12 0 0 1 1.379 1.43c.332.577.496 1.288.496 2.116a4.458 4.458 0 0 1-.856 2.684z"/></svg>